# xmcd
# 
# Track frame offsets:
#     150
#     17260
#     35730
#     56414
#     73457
#     95164
#     113573
#     126992
#     144052
#     163298
#     183208
#     202269
#     222019
#     243908
#     265367
#     284529
# 
# Disc length: 4099
# 
# Revision: 12
# Processed by: cddbd v1.5.2PL0 Copyright (c) Steve Scherf et al.
# Submitted via: BonkEnc v1.0.6
# 
DISCID=f4100110
DTITLE=A-HA - THE HITS OF A-HA
DYEAR=0
DGENRE=Pop
TTITLE0=Take on me
TTITLE1=cry wolf
TTITLE2=Touchy
TTITLE3=You are the one (Remix)
TTITLE4=Manhattan skyline
TTITLE5=The Blood That Moves The Body
TTITLE6=Early Morning
TTITLE7=Hunting High And Low(Remix)
TTITLE8=Move To Memphis
TTITLE9=I`ve Been Losing You
TTITLE10=The Living Daylights
TTITLE11=Crying In The Rain
TTITLE12=I Call Your Name
TTITLE13=Stay On These Roads
TTITLE14=Train Of Thought(Remix)
TTITLE15=The Sun Always Shines On TV
EXTD=
EXTT0=
EXTT1=
EXTT2=
EXTT3=
EXTT4=
EXTT5=
EXTT6=
EXTT7=
EXTT8=
EXTT9=
EXTT10=
EXTT11=
EXTT12=
EXTT13=
EXTT14=
EXTT15=
PLAYORDER=
